<?xml version="1.0" encoding="utf-8"?>
<!-- Generator: Adobe Illustrator 24.3.0, SVG Export Plug-In . SVG Version: 6.00 Build 0)  -->
<svg version="1.1" id="Layer_1" xmlns="http://www.w3.org/2000/svg" xmlns:xlink="http://www.w3.org/1999/xlink" x="0px" y="0px"
	 viewBox="0 0 111 32" style="enable-background:new 0 0 111 32;" xml:space="preserve">
<style type="text/css">
	.st0{fill:none;stroke:#FFFFFF;stroke-width:0.5;}
	.st1{fill:#FFFFFF;stroke:#FFFFFF;stroke-width:0.5;}
	.st2{fill:#FFFFFF;}
	.st3{fill:#F8F183;}
</style>
<path class="st0" d="M67.69,16.62c-1.12,0-2.18,1.36-2.57,3.39l-0.54,3.04c0,0,0.5,0.47,1.34,0.47c1.81,0,3.06-3.02,3.06-5.11
	C68.99,17.55,68.68,16.62,67.69,16.62z"/>
<path class="st0" d="M55.83,16.4c-1.77,0-2.74,3.04-2.74,4.92c0,1.19,0.45,2.13,1.57,2.13c1.73,0,2.7-3.06,2.7-5.09
	C57.36,17.4,57,16.4,55.83,16.4z"/>
<path class="st1" d="M34.55,18.78c-0.82-0.45-1.25-0.82-1.25-1.34c0-0.67,0.58-1.08,1.51-1.08c1.08,0,2.03,0.45,2.03,0.45l0.75-2.31
	c0,0-0.69-0.54-2.74-0.54c-2.85,0-4.83,1.64-4.83,3.92c0,1.29,0.93,2.29,2.16,3c0.99,0.56,1.34,0.97,1.34,1.55
	c0,0.63-0.5,1.12-1.42,1.12c-1.38,0-2.67-0.71-2.67-0.71l-0.8,2.31c0,0,1.21,0.8,3.21,0.8c2.93,0,5.02-1.44,5.02-4.03
	C36.9,20.5,35.82,19.51,34.55,18.78z"/>
<path class="st1" d="M106.64,18.67c-0.82-0.45-1.25-0.82-1.25-1.34c0-0.67,0.58-1.08,1.51-1.08c1.08,0,2.03,0.45,2.03,0.45
	l0.75-2.31c0,0-0.69-0.54-2.74-0.54c-2.85,0-4.83,1.64-4.83,3.92c0,1.29,0.93,2.29,2.16,3c0.99,0.56,1.34,0.97,1.34,1.55
	c0,0.63-0.5,1.12-1.42,1.12c-1.38,0-2.67-0.71-2.67-0.71l-0.8,2.31c0,0,1.21,0.8,3.21,0.8c2.93,0,5.02-1.44,5.02-4.03
	C109,20.39,107.92,19.4,106.64,18.67z"/>
<path class="st1" d="M46.23,13.92c-1.44,0-2.57,0.69-3.45,1.73l-0.04-0.02l1.25-6.56h-3.28l-3.17,16.67h3.26l1.08-5.69
	c0.43-2.16,1.53-3.47,2.57-3.47c0.73,0,1.01,0.5,1.01,1.21c0,0.45-0.04,0.99-0.15,1.44l-1.23,6.53h3.26l1.27-6.73
	c0.15-0.71,0.24-1.55,0.24-2.13C48.89,15.02,47.94,13.92,46.23,13.92z"/>
<path class="st1" d="M56.26,13.92c-3.92,0-6.53,3.54-6.53,7.48c0,2.52,1.55,4.57,4.49,4.57c3.86,0,6.45-3.45,6.45-7.48
	C60.68,16.15,59.32,13.92,56.26,13.92z M54.67,23.46c-1.12,0-1.57-0.95-1.57-2.13c0-1.88,0.97-4.92,2.74-4.92
	c1.16,0,1.53,0.99,1.53,1.96C57.36,20.39,56.39,23.46,54.67,23.46z"/>
<path class="st1" d="M69.03,13.92c-2.2,0-3.45,1.94-3.45,1.94h-0.04l0.19-1.75h-2.89c-0.15,1.19-0.41,2.98-0.67,4.33l-2.26,11.9
	h3.26l0.91-4.83h0.06c0,0,0.67,0.43,1.92,0.43c3.84,0,6.34-3.92,6.34-7.89C72.39,15.89,71.42,13.92,69.03,13.92z M65.92,23.52
	c-0.84,0-1.34-0.47-1.34-0.47l0.54-3.04c0.39-2.03,1.44-3.39,2.57-3.39c0.99,0,1.29,0.93,1.29,1.79
	C68.99,20.5,67.73,23.52,65.92,23.52z"/>
<path class="st1" d="M80.87,13.92c-2.2,0-3.45,1.94-3.45,1.94h-0.04l0.19-1.75h-2.89c-0.15,1.19-0.41,2.98-0.67,4.33l-2.26,11.9H75
	l0.91-4.83h0.06c0,0,0.67,0.43,1.92,0.43c3.84,0,6.34-3.92,6.34-7.89C84.23,15.89,83.26,13.92,80.87,13.92z M77.76,23.52
	c-0.84,0-1.34-0.47-1.34-0.47l0.54-3.04c0.39-2.03,1.44-3.39,2.57-3.39c0.99,0,1.29,0.93,1.29,1.79
	C80.82,20.5,79.57,23.52,77.76,23.52z"/>
<g>
	<path class="st1" d="M88.85,9.17c-1.04,0-1.88,0.82-1.88,1.9c0,0.97,0.6,1.64,1.53,1.64h0.04c1.01,0,1.9-0.69,1.92-1.9
		C90.49,9.84,89.85,9.17,88.85,9.17z"/>
	<polygon class="st1" points="84.28,25.67 87.56,25.67 89.78,14.11 86.48,14.11 	"/>
</g>
<g>
	<path class="st0" d="M9.29,12.48c-1.96,0.93-2.84,2.81-2.71,4.68c0.12,1.8,1.26,2.47,2.16,3.13"/>
	<path class="st0" d="M10.48,25.57c1.78-0.44,2.94-2.06,2.81-4.33c-0.12-1.77-1.24-2.66-2.26-3.33"/>
	<path class="st0" d="M11.23,14.91c0.96,0,1.73,0.36,1.73,0.36l0.82-3.11c0,0-0.71-0.35-2.11-0.26c-0.07,0-0.15,0.01-0.22,0.02"/>
	<path class="st0" d="M8.55,22.93c-1.1-0.09-2.32-1.01-2.32-1.01L5.67,24.3c0,0,0.94,1.01,2.69,1.31"/>
	<path class="st0" d="M9.53,9.1l0-0.02l-1.9,0.59c0,0,0,0.01,0,0.01C8.23,9.49,8.88,9.3,9.53,9.1z"/>
	<path class="st0" d="M13.61,7.84c0-0.01,0-0.02,0-0.03l-1.91,0.59l0,0.02C12.35,8.23,13,8.03,13.61,7.84z"/>
	<path class="st1" d="M5.67,24.3l0.56-2.37c0,0,1.22,0.92,2.32,1.01l0.19-2.65c-0.9-0.65-2.04-1.32-2.16-3.13
		c-0.13-1.87,0.75-3.75,2.71-4.68L9.53,9.1c-0.65,0.2-1.3,0.4-1.9,0.58c0,0,0-0.01,0-0.01L7.06,9.84L4.71,28.03l3.43,0.59l0.21-3.02
		C6.61,25.31,5.67,24.3,5.67,24.3z"/>
	<path class="st1" d="M13.61,7.82c0,0.01,0,0.02,0,0.03C13,8.03,12.35,8.23,11.69,8.43l-0.25,3.48c0.07-0.01,0.15-0.01,0.22-0.02
		c1.4-0.09,2.11,0.26,2.11,0.26l-0.82,3.11c0,0-0.76-0.35-1.73-0.36l-0.21,2.99c1.02,0.67,2.15,1.57,2.26,3.33
		c0.13,2.27-1.03,3.89-2.81,4.33l-0.24,3.42l3.67,0.64l0.38-22.02L13.61,7.82z"/>
	<path class="st1" d="M4.23,10.75c-0.75,0.24-0.78,0.26-0.86,0.97C3.3,12.26,1.31,27.45,1.31,27.45l1.32,0.23l2.21-17.12
		C4.46,10.67,4.24,10.74,4.23,10.75z"/>
	<path class="st2" d="M16.58,6.92c0-0.01,0-0.01-0.01-0.02l-0.17,0.05l-0.4,23.04l1.61,0.28V6.66c-0.13,0-0.19,0.02-0.24,0.02
		C17.38,6.68,17.08,6.77,16.58,6.92z"/>
	<path class="st2" d="M18.11,6.92v23.31l1.28-0.32V8.16C19.01,7.8,18.4,7.2,18.11,6.92z"/>
	<path class="st1" d="M24.89,28.55c0,0-2.91-19.69-2.93-19.82c-0.02-0.13-0.13-0.22-0.24-0.22c-0.02,0-0.1,0-0.22,0v20.88
		L24.89,28.55z"/>
	<path class="st1" d="M10.93,14.92c-1.6,0.11-1.62,1.12-1.6,1.38c0.04,0.63,0.82,1.04,1.68,1.6l0.21-2.99
		C11.13,14.91,11.03,14.91,10.93,14.92z"/>
	<path class="st1" d="M8.84,22.94c0.75-0.04,1.04-0.67,1.01-1.1c-0.04-0.71-0.53-1.13-1.12-1.55l-0.19,2.65
		C8.65,22.94,8.75,22.95,8.84,22.94z"/>
</g>
<path class="st1" d="M94.02,18.26"/>
<g>
	<path class="st2" d="M99.44,24.96c-1.37,0.69-3.07,0.91-4.36,0.91c-3.35,0-5.08-1.89-5.08-4.93c0-3.57,2.59-7.28,6.83-7.28
		c2.37,0,4.07,1.32,4.07,3.5c0,2.99-2.9,4.07-7.59,3.95c0,0.34,0.12,0.86,0.36,1.2c0.46,0.6,1.25,0.91,2.25,0.91
		c1.27,0,2.35-0.29,3.28-0.74L99.44,24.96z M96.39,16.17c-1.6,0-2.52,1.32-2.75,2.42c2.68,0.02,4.02-0.36,4.02-1.41
		C97.66,16.58,97.18,16.17,96.39,16.17z"/>
</g>
<path class="st3" d="M22.23,6.78c-0.18-0.28-0.46-0.38-0.71-0.31c0.03-0.24-0.02-0.49-0.14-0.7c0.04-0.1,0.06-0.2,0.06-0.3
	c0-0.01,0-0.01,0-0.02c-0.01-0.43-0.35-0.79-0.8-0.9c-0.08-0.1-0.19-0.19-0.33-0.26c-0.16-0.08-0.33-0.12-0.5-0.13
	c0.02-0.34-0.17-0.67-0.53-0.86c-0.4-0.21-0.88-0.16-1.21,0.09c-0.18-0.28-0.53-0.47-0.92-0.47c-0.23,0-0.44,0.07-0.62,0.18
	c-0.2-0.21-0.49-0.34-0.82-0.34c-0.06,0-0.12,0.01-0.18,0.01c-0.03-0.1-0.08-0.19-0.14-0.28c-0.33-0.43-0.99-0.55-1.48-0.26
	c-0.11,0.07-0.2,0.15-0.28,0.24c-0.04-0.28-0.22-0.54-0.52-0.7c-0.51-0.26-1.16-0.11-1.46,0.34c-0.09,0.13-0.13,0.27-0.14,0.41
	c-0.08-0.02-0.17-0.03-0.26-0.03c-0.41,0-0.76,0.21-0.94,0.51c-0.07,0.05-0.12,0.11-0.17,0.18c-0.04-0.08-0.1-0.15-0.16-0.22
	C9.6,2.56,8.93,2.52,8.49,2.86c-0.26,0.2-0.38,0.49-0.36,0.78c-0.07-0.01-0.13-0.02-0.2-0.02c-0.57,0-1.03,0.4-1.06,0.89
	c-0.28-0.11-0.61-0.12-0.9,0c-0.53,0.23-0.75,0.79-0.5,1.26C5.5,5.85,5.55,5.92,5.61,5.98C5.41,6.2,5.35,6.5,5.43,6.78
	C4.85,6.79,4.38,7.21,4.38,7.73c0,0.08,0.01,0.16,0.03,0.23C4.07,8.12,3.84,8.43,3.84,8.8c0,0.45,0.36,0.83,0.83,0.92l0.95-0.3
	l1.4-0.44L8.1,8.63l0.83-0.26L10,8.03l0.67-0.21l0.33-0.1l0.55-0.17l1.25-0.39l0.35-0.11l0.64-0.2l0.56-0.18l0.64-0.2l0.21-0.07
	l0.52-0.16l0.56-0.18l0.17-0.05l0.32-0.1c0,0,0.02-0.01,0.05-0.02c0.01,0,0.02-0.01,0.03-0.01c0.01-0.01,0.03-0.01,0.05-0.02
	c0.02-0.01,0.04-0.01,0.06-0.02c0.07-0.02,0.16-0.04,0.27-0.05c0.2-0.02,0.45-0.01,0.73,0.07c0.07,0.02,0.15,0.05,0.22,0.08
	c0.05,0.02,0.1,0.04,0.14,0.06c0.12,0.06,0.25,0.14,0.38,0.23c0.04,0.03,0.08,0.07,0.12,0.1c0.11,0.09,0.21,0.18,0.32,0.3
	c0.15,0.16,0.27,0.3,0.39,0.43c0.08,0.09,0.16,0.17,0.23,0.25c0.33,0.35,0.51,0.53,0.51,0.53h0.08h1.98
	C22.45,7.5,22.43,7.08,22.23,6.78z"/>
</svg>
